<svg version="1.2" xmlns="http://www.w3.org/2000/svg" viewBox="0 0 384 512" width="384" height="512">
	<title>xmark-solid-svg</title>
	<style>
		.s0 { fill: #4fc7ff;stroke: #000000;stroke-miterlimit:100;stroke-width: 5 } 
	</style>
	<g id="Layer 1">
		<path class="s0" d="m368.8 131.4c14.8-14.7 14.8-38.6 0-53.4-14.7-14.7-38.6-14.7-53.3 0l-124 124.2-124.1-124c-14.7-14.8-38.6-14.8-53.4 0-14.7 14.7-14.7 38.6 0 53.3l124.2 124-124 124.1c-14.8 14.7-14.8 38.6 0 53.4 14.7 14.7 38.6 14.7 53.3 0l124-124.2 124.1 124c14.7 14.8 38.6 14.8 53.4 0 14.7-14.7 14.7-38.6 0-53.3l-124.2-124z"/>
	</g>
</svg>