<svg version="1.2" xmlns="http://www.w3.org/2000/svg" viewBox="0 0 448 512" width="448" height="512">
	<title>bars-solid-svg</title>
	<style>
		.s0 { fill: #4fc7ff;stroke: #000000;stroke-miterlimit:100;stroke-width: 5 } 
	</style>
	<g id="Layer 1">
		<path class="s0" d="m2 97.4c0-17.5 14.2-31.7 31.7-31.7h380.6c17.5 0 31.7 14.2 31.7 31.7 0 17.6-14.2 31.7-31.7 31.7h-380.6c-17.5 0-31.7-14.1-31.7-31.7zm0 158.6c0-17.5 14.2-31.7 31.7-31.7h380.6c17.5 0 31.7 14.2 31.7 31.7 0 17.5-14.2 31.7-31.7 31.7h-380.6c-17.5 0-31.7-14.2-31.7-31.7zm444 158.6c0 17.5-14.2 31.7-31.7 31.7h-380.6c-17.5 0-31.7-14.2-31.7-31.7 0-17.6 14.2-31.7 31.7-31.7h380.6c17.5 0 31.7 14.1 31.7 31.7z"/>
	</g>
</svg>